<?xml version="1.0" encoding="UTF-8" standalone="no"?>
<svg 
    role="img" 
    xmlns="http://www.w3.org/2000/svg" 
    width="1000mm"
    height="1000mm"
    viewBox="0 0 1000 1000"
    style="max-width:1.6em; height: auto;">
    
    <path 
        id="path" 
        style="opacity:1;vector-effect:none;fill:#000000;fill-opacity:1;"
        d=" M 374 563C 314 563 268 581 237 612C 205 644 188 690 188 750C 188 750 188 825 188 825C 188 860 215 888 250 888C 250 888 750 888 750 888C 785 888 813 860 813 825C 813 825 813 750 813 750C 813 690 796 643 765 612C 735 580 691 563 631 563C 591 573 570 579 552 583C 535 586 521 588 500 588C 479 588 466 586 450 583C 434 579 414 573 374 563C 374 563 374 563 374 563M 375 538C 375 538 377 538 377 538C 377 538 378 538 378 538C 420 548 441 555 456 558C 471 562 479 563 500 563C 521 563 531 562 547 558C 563 555 585 548 627 538C 627 538 628 538 628 538C 628 538 630 538 630 538C 695 538 748 557 783 594C 819 632 838 685 838 750C 838 750 838 825 838 825C 838 874 799 913 750 913C 750 913 250 913 250 913C 201 913 163 874 163 825C 163 825 163 750 163 750C 163 685 182 631 219 594C 256 557 310 538 375 538C 375 538 375 538 375 538M 850 312C 853 312 856 314 859 316C 861 318 863 322 862 325C 862 325 862 412 862 412C 862 412 950 412 950 412C 955 412 959 415 961 419C 963 423 963 427 961 431C 959 435 955 438 950 437C 950 437 862 437 862 437C 862 437 862 525 862 525C 863 530 860 534 856 536C 852 538 848 538 844 536C 840 534 837 530 837 525C 837 525 837 437 837 437C 837 437 750 437 750 437C 745 438 741 435 739 431C 737 427 737 423 739 419C 741 415 745 412 750 412C 750 412 837 412 837 412C 837 412 837 325 837 325C 837 318 843 312 850 312C 850 312 850 312 850 312M 500 131C 453 131 410 149 376 182C 343 215 325 259 325 306C 325 402 403 481 500 481C 597 481 675 402 675 306C 675 259 657 215 624 182C 590 149 547 131 500 131C 500 131 500 131 500 131M 500 106C 553 106 604 127 642 164C 679 202 701 253 701 306C 699 416 611 506 500 506C 389 506 300 416 300 306C 300 253 321 202 358 164C 396 127 447 106 500 106C 500 106 500 106 500 106"
        transform="">
    </path>    
</svg>